<svg width="10" height="10" viewBox="0 0 10 10" fill="none" xmlns="http://www.w3.org/2000/svg">
<g clip-path="url(#clip0_22_87)">
<rect width="10" height="10" rx="1.25" fill="#DEC364"/>
<path d="M4.39727 2.60009L2.98769 0.973011C2.82519 0.785511 2.52727 0.786344 2.33852 0.975511L1.17935 2.13676C0.834355 2.48218 0.735605 2.99509 0.935188 3.40634C2.12753 5.87508 4.11854 7.86888 6.5856 9.06468C6.99644 9.26426 7.50894 9.16551 7.85394 8.82009L9.02394 7.64801C9.21352 7.45843 9.21394 7.15884 9.02477 6.99634L7.39144 5.59426C7.2206 5.44759 6.95519 5.46676 6.78394 5.63843L6.21561 6.20759C6.18651 6.23809 6.14821 6.25819 6.10658 6.26481C6.06496 6.27144 6.02231 6.26422 5.98519 6.24426C5.05621 5.7093 4.2856 4.93769 3.75185 4.00801C3.73187 3.97082 3.72463 3.92811 3.73125 3.88641C3.73787 3.84471 3.75799 3.80634 3.78852 3.77718L4.35519 3.21009C4.52685 3.03759 4.5456 2.77093 4.39727 2.59968V2.60009Z" stroke="white" stroke-width="0.833333" stroke-linecap="round" stroke-linejoin="round"/>
</g>
<defs>
<clipPath id="clip0_22_87">
<rect width="10" height="10" rx="1.25" fill="white"/>
</clipPath>
</defs>
</svg>
