<svg width="10" height="10" viewBox="0 0 10 10" fill="none" xmlns="http://www.w3.org/2000/svg">
<rect width="10" height="10" rx="1.25" fill="#DEC364"/>
<path fill-rule="evenodd" clip-rule="evenodd" d="M4.99972 8.82853L5.3002 8.48995C5.64115 8.09948 5.94782 7.729 6.22067 7.37662L6.44591 7.07948C7.38639 5.81233 7.85686 4.80662 7.85686 4.06329C7.85686 2.47662 6.57782 1.19043 4.99972 1.19043C3.42163 1.19043 2.14258 2.47662 2.14258 4.06329C2.14258 4.80662 2.61305 5.81233 3.55353 7.07948L3.77877 7.37662C4.16802 7.87538 4.57528 8.35982 4.99972 8.829V8.82853Z" stroke="white" stroke-width="0.8375" stroke-linecap="round" stroke-linejoin="round"/>
<path d="M5.00005 5.23837C5.65753 5.23837 6.19052 4.70538 6.19052 4.0479C6.19052 3.39042 5.65753 2.85742 5.00005 2.85742C4.34256 2.85742 3.80957 3.39042 3.80957 4.0479C3.80957 4.70538 4.34256 5.23837 5.00005 5.23837Z" stroke="white" stroke-width="0.8375" stroke-linecap="round" stroke-linejoin="round"/>
</svg>
